<svg xmlns="http://www.w3.org/2000/svg" width="24" height="24" viewBox="0 0 24 24"><defs><clipPath id="yi5da"><path fill="#fff" d="M8.452.54h7.546c1.217 0 2.203 1.06 2.203 2.368v18.608c0 1.309-.986 2.37-2.203 2.37H8.452c-1.217 0-2.203-1.061-2.203-2.37V2.908C6.25 1.6 7.235.539 8.452.539z"/></clipPath><clipPath id="yi5db"><path fill="#fff" d="M7.693 19.642V2.415h9.064v17.227z"/></clipPath><clipPath id="yi5dc"><path fill="#fff" d="M12.225 20.016c.709 0 1.283.55 1.283 1.374 0 .823-.574 1.329-1.283 1.329s-1.284-.506-1.284-1.33c0-.823.575-1.373 1.284-1.373z"/></clipPath></defs><g><g><g><path fill="none" stroke="#1f2c4e" stroke-linejoin="round" stroke-miterlimit="50" d="M8.452.54h7.546c1.217 0 2.203 1.06 2.203 2.368v18.608c0 1.309-.986 2.37-2.203 2.37H8.452c-1.217 0-2.203-1.061-2.203-2.37V2.908C6.25 1.6 7.235.539 8.452.539z" clip-path="url(&quot;#yi5da&quot;)"/></g><g><path fill="none" stroke="#1f2c4e" stroke-linecap="round" stroke-linejoin="round" stroke-miterlimit="50" d="M7.693 19.642v0V2.415v0h9.064v17.227z" clip-path="url(&quot;#yi5db&quot;)"/></g><g><path fill="none" stroke="#1f2c4e" stroke-miterlimit="50" d="M12.225 20.016c.709 0 1.283.55 1.283 1.374 0 .823-.574 1.329-1.283 1.329s-1.284-.506-1.284-1.33c0-.823.575-1.373 1.284-1.373z" clip-path="url(&quot;#yi5dc&quot;)"/></g><g><path fill="none" stroke="#1f2c4e" stroke-linecap="round" stroke-miterlimit="50" stroke-width=".5" d="M11.121 1.73h2.548"/></g><g><path fill="none" stroke="#1f2c4e" stroke-linecap="round" stroke-miterlimit="50" stroke-width=".5" d="M3.89 7.858v0s-.798 1.68-.798 3.286c0 1.605.799 3.134.799 3.134v0"/></g><g><path fill="none" stroke="#1f2c4e" stroke-linecap="round" stroke-miterlimit="50" stroke-width=".5" d="M20.674 14.278v0s.799-1.682.799-3.287-.799-3.133-.799-3.133v0"/></g><g><path fill="none" stroke="#1f2c4e" stroke-linecap="round" stroke-miterlimit="50" stroke-width=".5" d="M2.468 6.316v0S1.286 8.805 1.286 11.18c0 2.375 1.182 4.638 1.182 4.638v0"/></g><g><path fill="none" stroke="#1f2c4e" stroke-linecap="round" stroke-miterlimit="50" stroke-width=".5" d="M22.097 15.82v0s1.182-2.49 1.182-4.865c0-2.376-1.182-4.639-1.182-4.639v0"/></g></g></g></svg>