<svg xmlns="http://www.w3.org/2000/svg" width="26" height="20" viewBox="0 0 26 20"><defs><clipPath id="7v5ba"><path fill="#fff" d="M5.684 2.299H20.14c.662 0 1.198.536 1.198 1.197v11.711H4.487V3.497c0-.662.536-1.199 1.197-1.199z"/></clipPath><clipPath id="7v5bb"><path fill="#fff" d="M5.448.633h14.927a2.395 2.395 0 0 1 2.396 2.395v13.845H3.053V3.028A2.395 2.395 0 0 1 5.448.633z"/></clipPath><clipPath id="7v5bc"><path fill="#fff" d="M.184 16.457H25.64v1.665c0 .833-.833 1.666-1.666 1.666H1.85c-.833 0-1.666-.833-1.666-1.666z"/></clipPath><clipPath id="7v5bd"><path fill="#fff" d="M7.963 8.49c0-2.694 2.229-4.878 4.978-4.878 2.75 0 4.978 2.184 4.978 4.878s-2.229 4.878-4.978 4.878c-2.749 0-4.978-2.184-4.978-4.878z"/></clipPath><clipPath id="7v5be"><path fill="#fff" d="M10.452 8.49c0-2.694 1.115-4.878 2.49-4.878 1.374 0 2.488 2.184 2.488 4.878s-1.114 4.878-2.489 4.878c-1.374 0-2.489-2.184-2.489-4.878z"/></clipPath></defs><g><g><g><path fill="none" stroke="#1f2c4e" stroke-miterlimit="50" d="M5.684 2.299v0h1.818v0h10.534v0h2.103c.662 0 1.198.536 1.198 1.197v11.711H4.487v0-11.71c0-.662.536-1.199 1.197-1.199z" clip-path="url(&quot;#7v5ba&quot;)"/></g><g><path fill="none" stroke="#1f2c4e" stroke-linecap="round" stroke-miterlimit="50" d="M5.448.633h14.927a2.395 2.395 0 0 1 2.396 2.395v13.845H3.053v0V3.028A2.395 2.395 0 0 1 5.448.633z" clip-path="url(&quot;#7v5bb&quot;)"/></g><g><path fill="none" stroke="#1f2c4e" stroke-linecap="round" stroke-linejoin="round" stroke-miterlimit="50" d="M.184 16.457v0H25.64v1.665c0 .833-.833 1.666-1.666 1.666H1.85c-.833 0-1.666-.833-1.666-1.666z" clip-path="url(&quot;#7v5bc&quot;)"/></g><g><g><path fill="none" stroke="#1f2c4e" stroke-miterlimit="50" d="M7.963 8.49c0-2.694 2.229-4.878 4.978-4.878 2.75 0 4.978 2.184 4.978 4.878s-2.229 4.878-4.978 4.878c-2.749 0-4.978-2.184-4.978-4.878z" clip-path="url(&quot;#7v5bd&quot;)"/></g><g><path fill="none" stroke="#1f2c4e" stroke-miterlimit="50" d="M10.452 8.49c0-2.694 1.115-4.878 2.49-4.878 1.374 0 2.488 2.184 2.488 4.878s-1.114 4.878-2.489 4.878c-1.374 0-2.489-2.184-2.489-4.878z" clip-path="url(&quot;#7v5be&quot;)"/></g><g><path fill="none" stroke="#1f2c4e" stroke-linecap="round" stroke-miterlimit="50" stroke-width=".5" d="M8.088 8.612h9.706"/></g><g><path fill="none" stroke="#1f2c4e" stroke-linecap="round" stroke-miterlimit="50" stroke-width=".5" d="M9.332 5.399v0s1.841 1.29 3.646 1.29c1.804 0 3.572-1.29 3.572-1.29v0"/></g><g><path fill="none" stroke="#1f2c4e" stroke-linecap="round" stroke-miterlimit="50" stroke-width=".5" d="M16.55 11.691v0s-1.84-1.29-3.645-1.29-3.573 1.29-3.573 1.29v0"/></g></g></g></g></svg>