<svg xmlns="http://www.w3.org/2000/svg" width="26" height="18" viewBox="0 0 26 18"><defs><clipPath id="k1sda"><path fill="#fff" d="M4.179.597l1.01.336c.914.305 1.442 1.412 1.18 2.474L4.717 10.1c-.262 1.062-1.216 1.675-2.13 1.371l-1.01-.336C.663 10.83.135 9.723.397 8.66l1.652-6.693C2.311.906 3.265.292 4.179.597z"/></clipPath><clipPath id="k1sdb"><path fill="#fff" d="M20.977 1.318l1.005-.356c.909-.323 1.872.271 2.15 1.328l1.752 6.658c.278 1.056-.233 2.174-1.143 2.497l-1.005.357c-.91.323-1.872-.271-2.15-1.328l-1.752-6.658c-.278-1.056.233-2.175 1.143-2.498z"/></clipPath></defs><g><g><path fill="none" stroke="#1f2c4e" stroke-miterlimit="50" d="M4.179.597l1.01.336c.914.305 1.442 1.412 1.18 2.474L4.717 10.1c-.262 1.062-1.216 1.675-2.13 1.371l-1.01-.336C.663 10.83.135 9.723.397 8.66l1.652-6.693C2.311.906 3.265.292 4.179.597z" clip-path="url(&quot;#k1sda&quot;)"/></g><g><path fill="none" stroke="#1f2c4e" stroke-linecap="round" stroke-miterlimit="50" d="M20.977 1.318v0l1.005-.356c.909-.323 1.872.271 2.15 1.328l1.752 6.658c.278 1.056-.233 2.174-1.143 2.497l-1.005.357c-.91.323-1.872-.271-2.15-1.328l-1.752-6.658c-.278-1.056.233-2.175 1.143-2.498z" clip-path="url(&quot;#k1sdb&quot;)"/></g><g><path fill="none" stroke="#1f2c4e" stroke-linecap="round" stroke-miterlimit="50" stroke-width=".5" d="M19.957 2.905v0s-1.57.14-1.75 0c-.18-.14-2.4-1.551-4.255-1.754-1.854-.203-2.704.41-3.517 1.204-.814.794-1.552 2.14-1.678 2.81-.127.672-.08 1.906.244 2.315.323.41.676.649 1.307.41.382-.137.688-.386 1.275-1.035.223-.24.577-.819.723-1.08.176-.393.357-.246.856-.288.499-.041.735-.275.735-.275v0"/></g><g><path fill="none" stroke="#1f2c4e" stroke-linecap="round" stroke-miterlimit="50" stroke-width=".5" d="M13.907 5.23v0s5.821 5.523 6.047 5.776c.226.252.63 1.033.053 1.881-.578.848-1.154.628-1.602.364"/></g><g><path fill="none" stroke="#1f2c4e" stroke-linecap="round" stroke-miterlimit="50" stroke-width=".5" d="M15.47 10.281v0s2.601 2.504 2.922 2.962c.321.458.308 1.22-.067 1.732-.374.512-.989.788-1.911.15"/></g><g><path fill="none" stroke="#1f2c4e" stroke-linecap="round" stroke-miterlimit="50" stroke-width=".5" d="M13.571 12.161v0s2.46 2.413 2.73 2.746c.269.333.19 1.151-.166 1.595-.356.445-.775.613-1.304.323-1.096-.777-2.966-2.845-2.966-2.845v0"/></g><g><path fill="none" stroke="#1f2c4e" stroke-linecap="round" stroke-miterlimit="50" stroke-width=".5" d="M13.097 15.276c.346.45.479 1.148 0 1.695-.478.547-.945.491-1.444.218-.324-.18-1.347-.67-2.781-1.83-1.435-1.16-2.032-1.75-2.797-2.53-.765-.78-1.864-2.086-1.864-2.086v0"/></g><g><path fill="none" stroke="#1f2c4e" stroke-linecap="round" stroke-miterlimit="50" stroke-width=".5" d="M6.235 2.794v0s1.136-.746 2.341-.927c1.205-.182 2.376 0 2.376 0v0"/></g><g><path fill="none" stroke="#1f2c4e" stroke-linecap="round" stroke-miterlimit="50" stroke-width=".5" d="M20.204 11.376v0s.356.182.808.131c.452-.05 1.003-.43 1.003-.43v0"/></g></g></svg>