<svg xmlns="http://www.w3.org/2000/svg" width="34" height="34" viewBox="0 0 34 34"><defs><mask id="l9gmb" width="2" height="2" x="-1" y="-1"><path fill="#fff" d="M5 5h24v24H5z"/><path d="M5 17c0-6.627 5.373-12 12-12s12 5.373 12 12-5.373 12-12 12S5 23.627 5 17z"/></mask><filter id="l9gma" width="56" height="56" x="-11" y="-11" filterUnits="userSpaceOnUse"><feOffset in="SourceGraphic" result="FeOffset1025Out"/><feGaussianBlur in="FeOffset1025Out" result="FeGaussianBlur1026Out" stdDeviation="2.4 2.4"/></filter><clipPath id="l9gmc"><path fill="#fff" d="M5 17c0-6.627 5.373-12 12-12s12 5.373 12 12-5.373 12-12 12S5 23.627 5 17z"/></clipPath><linearGradient id="l9gmd" x1="14.53" x2="19.88" y1="27.39" y2="7.18" gradientUnits="userSpaceOnUse"><stop offset="0" stop-color="#cf9e18"/><stop offset="1" stop-color="#ffd35e"/></linearGradient></defs><g><g><g><g filter="url(#l9gma)"><path fill="none" d="M5 17c0-6.627 5.373-12 12-12s12 5.373 12 12-5.373 12-12 12S5 23.627 5 17z" mask="url(&quot;#l9gmb&quot;)"/><path fill-opacity=".19" d="M5 17c0-6.627 5.373-12 12-12s12 5.373 12 12-5.373 12-12 12S5 23.627 5 17z"/></g><path fill="#cf9e18" d="M5 17c0-6.627 5.373-12 12-12s12 5.373 12 12-5.373 12-12 12S5 23.627 5 17z"/><path fill="none" stroke="#35c1da" stroke-miterlimit="50" d="M5 17c0-6.627 5.373-12 12-12s12 5.373 12 12-5.373 12-12 12S5 23.627 5 17z" clip-path="url(&quot;#l9gmc&quot;)"/></g><g><path fill="url(#l9gmd)" d="M6.39 16.89c0-5.799 4.701-10.5 10.5-10.5 5.8 0 10.5 4.701 10.5 10.5 0 5.8-4.7 10.5-10.5 10.5-5.799 0-10.5-4.7-10.5-10.5z"/></g><g><g><text dominant-baseline="text-before-edge" style="font-kerning:normal" fill="#fff" font-family="'Montserrat','Montserrat-Bold'" font-size="8" font-style="none" font-weight="700" letter-spacing=".4" transform="translate(8 11)"><tspan>sms</tspan></text></g></g></g></g></svg>