<svg xmlns="http://www.w3.org/2000/svg" width="14" height="14" viewBox="0 0 14 14"><g><g><g><path fill="none" stroke="#bcd7df" stroke-linecap="round" stroke-miterlimit="50" d="M7.223 2.922v0s1.914.13 2.98 1.246c1.064 1.116 1.28 3.22 1.28 3.22v0"/></g><g><path fill="none" stroke="#bcd7df" stroke-linecap="round" stroke-miterlimit="50" d="M7.708 4.687v0s.884.096 1.387.624c.502.527.622 1.488.622 1.488v0"/></g><g><path fill="none" stroke="#bcd7df" stroke-linecap="round" stroke-miterlimit="50" d="M6.6 1.12v0S9.316.863 11.345 2.99c2.03 2.125 1.837 5.023 1.837 5.023v0"/></g><g><path fill="#bcd7df" d="M3.296 2.173c.726.166 1.752 2.504 1.625 3.25-.127.747-1.04.8-1.013 1.306.027.506.6 1.352 1.706 2.318 1.106.966 2.212 1.573 2.691 1.52.48-.054.986-1.466 1.466-1.52.48-.053 2.744.826 2.93 1.52.187.692-.206 1.425-.825 1.971-.62.546-1.253.666-2.105.693-.853.026-3.704-.88-5.863-2.878C1.75 8.355 1.004 6.143.844 5.423c-.16-.719.027-1.598.533-2.318s1.192-1.099 1.919-.932z"/></g></g></g></svg>