<svg xmlns="http://www.w3.org/2000/svg" width="12" height="14" viewBox="0 0 12 14"><g><g><g><g><path fill="#bcd7df" d="M6.252 8.122c.837 0 1.76-.39 2.357-.99.648.298 1.736.407 2.178 1.057.963 1.418.966 3.864.966 4.411-.288.493-2.643 1.276-5.501 1.276-2.858 0-5.513-.865-5.492-1.276 0-.605-.118-3.01.954-4.478.372-.509 1.506-.68 2.173-.99.662.683 1.619.99 2.365.99z"/></g><g><path fill="#bcd7df" d="M6.238.13C8.102.13 9.31 1.302 9.31 3.29c0 1.986-1.208 4.234-3.072 4.234-1.865 0-3.074-2.248-3.074-4.234C3.164 1.302 4.373.13 6.238.13z"/></g></g></g></g></svg>